<?xml version="1.0" standalone="no"?><!DOCTYPE svg PUBLIC "-//W3C//DTD SVG 1.1//EN" "http://www.w3.org/Graphics/SVG/1.1/DTD/svg11.dtd"><svg t="1613621041026" class="icon" viewBox="0 0 1151 1024" version="1.1" xmlns="http://www.w3.org/2000/svg" p-id="7855" xmlns:xlink="http://www.w3.org/1999/xlink" width="40.46484375" height="36"><defs><style type="text/css"></style></defs><path d="M310.763749 46.097636h560.469414c103.141941 0 186.823138 83.681197 186.823138 186.823138v560.469415c0 103.141941-83.681197 186.823138-186.823138 186.823138H310.763749c-103.141941 0-186.823138-83.681197-186.823138-186.823138V232.920774c0-103.141941 83.681197-186.823138 186.823138-186.823138z" fill="#F08198" p-id="7856"></path><path d="M405.999762 589.052382c-11.919705-9.000594-25.420596-15.446965-39.408005-21.041929-28.339708-11.189928-58.138971-15.203706-88.424754-14.473928-7.176149 0-14.230669 0.608148-21.650077 0.973037 0-0.608148-0.608148-1.337926-0.608148-2.310964-1.946074-21.528448-4.257038-43.178525-5.838223-64.342083-1.337926-17.757928-1.946074-35.394227-2.310964-53.152156-0.608148-34.056301-0.608148-67.990973-0.608148-102.047274 0-8.027557-0.608148-7.176149-6.81126-4.378667-19.095855 7.662668-38.07008 15.203706-57.165934 22.501485-0.608148 0.608148-1.581185 2.554223-1.216297 3.40563 5.838223 21.528448 10.095261 43.665043 12.892743 65.680009 2.919112 19.095855 5.351704 37.583561 8.149186 56.192897 2.310963 16.420002 3.892149 32.718375 5.838223 49.260007 1.946074 16.784891 4.257038 33.448153 6.203112 50.476304 1.946074 16.176743 3.892149 31.745338 5.838223 47.922081 1.337926 11.433187 2.554223 22.988003 3.52726 34.42119 0.608148 9.122224 1.337926 18.122817 1.581186 26.758523 0 1.946074 0.608148 2.919112 2.554222 2.919111 4.257038 0 8.149186 0.608148 12.162965 0 19.704003-1.946074 39.408006-3.284 58.62549-6.203112 14.838817-2.310963 29.312745-5.838223 43.665043-10.581779 20.312151-6.689631 37.583561-18.244447 54.368452-31.623709 7.176149-5.351704 12.892743-11.919705 15.446966-20.190521 5.594964-13.379261 3.284-22.623114-6.811261-30.164152zM527.994299 603.647939c-0.973037-11.068298-2.067704-22.744744-3.405631-33.934671-1.459556-15.325336-3.040741-30.650671-4.378667-46.097637-1.459556-14.230669-1.946074-28.096449-3.040741-42.327117-1.459556-19.582373-3.040741-39.043117-4.378667-58.62549l-3.040741-43.300154c-0.364889-5.351704-2.554223-6.689631-8.392446-6.324742-6.93289 0.486519-13.86578 0.973037-20.920299 1.337926-6.081482 0.608148-12.041335 1.337926-17.879559 1.946075 18.122817 91.587124 26.150374 183.295878 35.515857 274.274854 11.068298 0.973037 21.041929 1.581185 31.502079 2.554223 2.067704 0.364889 3.040741 0 3.040741-1.946075l-0.973037-10.581779c-0.851408-12.649483-2.310963-24.812448-3.648889-36.975413zM468.88229 613.135052c-1.216296-11.433187-2.310963-22.623114-3.52726-33.934672-1.216296-12.892743-2.310963-26.028745-3.892148-38.921487-0.851408-8.027557-2.189334-15.568595-3.162371-23.109633-0.364889-2.919112-2.189334-4.135408-4.986816-3.770519-4.986816 0.608148-10.33852 0.608148-15.568595 1.337926-7.176149 0.973037-14.352298 2.310963-21.771706 3.284001 8.878964 49.138377 17.879558 98.155125 27.123411 147.171873 10.703409-1.581185 20.920299-2.797482 31.258819-4.135408-0.364889-3.770519-0.851408-7.541038-1.216296-11.068298-1.581185-12.771113-3.040741-24.934078-4.257038-36.853783zM578.957121 660.327355c-0.364889-18.974225-0.973037-37.461931-1.337926-56.557786-0.364889-23.474522 0-47.313933 0-70.666825 0-5.230075-0.364889-9.973631-0.608149-15.203706 0-2.310963-1.337926-4.257038-3.770519-4.257038-9.852001-0.364889-19.825632-0.608148-29.677634-0.608148-3.770519 0-7.176149 0.608148-10.946668 1.337926 0.364889 1.337926 0.364889 2.310963 0.364889 3.284001 1.337926 16.176743 2.797482 32.110227 4.135408 47.800451 1.337926 15.325336 2.797482 31.13719 4.135408 46.462525 1.459556 16.663262 2.797482 33.448153 4.378667 50.111415 0 0.973037 1.459556 2.432593 2.432593 2.432593 9.973631 0.364889 20.55541 0 31.13719 0-0.243259-1.824445-0.243259-3.162371-0.243259-4.135408zM450.881102 488.221404c-1.581185-18.366077-2.919112-35.637487-4.378667-53.395415-0.364889-2.310963-1.094667-3.40563-2.797482-3.40563-5.230075 0-10.581779 0-16.176743 0.364889 2.067704 19.704003 4.135408 38.556598 6.203112 58.017341 6.081482-0.608148 11.433187-0.729778 17.14978-1.581185zM590.998456 497.586887V447.597102c0-3.52726-1.459556-4.500297-4.743556-4.500297h-18.609336v57.409193c8.149186 0.364889 15.811854 0.608148 23.352892 0.973038v-3.892149zM427.52821 498.803183V495.032664c-0.851408-9.973631-2.067704-19.460744-2.919112-29.434374-0.486519-6.324742-1.216296-12.406224-1.702815-18.974225-0.364889-1.581185 0.364889-3.770519-2.067704-3.405631-5.594964 0.608148-10.946668 1.946074-16.541632 2.432593 3.162371 18.974225 6.081482 37.340302 9.243854 55.828009l13.987409-2.675853zM555.969117 500.141109v-29.677634c0-7.784297-0.486519-16.055113 0-23.83941 0-2.919112-1.094667-3.52726-3.892148-3.52726h-19.460744c1.702815 20.312151 3.284 39.408006 4.986816 58.382231 5.959853-0.364889 11.798076-0.851408 18.366076-1.337927zM814.797007 589.174011c-11.919705-9.122224-25.420596-15.446965-39.408006-21.041929-28.339708-11.189928-58.017342-15.203706-88.303124-14.473928-7.176149 0-14.230669 0.608148-21.650077 0.973037 0-0.608148-0.608148-1.337926-0.608148-2.310963-1.946074-21.528448-4.257038-43.178525-5.838223-64.342083-1.337926-17.757928-1.946074-35.515857-2.310964-53.152156-0.608148-34.177931-0.608148-67.990973-0.608148-102.168904 0-8.149186-0.608148-7.176149-6.81126-4.378667-19.095855 7.662668-37.94845 15.203706-57.044305 22.501485-0.608148 0.364889-1.581185 2.310963-1.337926 3.284 5.716593 21.650077 10.095261 43.543414 12.892743 65.68001 2.919112 19.095855 5.351704 37.583561 8.149186 56.314526 2.310963 16.420002 3.892149 32.718375 5.838223 49.381637 1.946074 16.784891 4.257038 33.569783 6.203112 50.476304 1.946074 16.176743 3.892149 31.745338 5.838223 48.04371 1.337926 11.554816 2.554223 22.988003 3.52726 34.54282 0.608148 9.000594 1.337926 18.122817 1.581186 26.758522 0 1.946074 0.608148 2.919112 2.554222 2.919112 4.257038 0 8.149186 0.608148 12.162965 0 19.704003-1.946074 39.408006-3.284 58.62549-6.203112 14.838817-2.310963 29.434375-5.838223 43.543414-10.581779 20.312151-6.689631 37.583561-18.366077 54.368452-31.623709 7.176149-5.351704 12.892743-11.919705 15.446965-20.190521 5.473334-13.62252 3.162371-22.866374-6.81126-30.407412zM936.669913 603.647939c-0.973037-11.068298-2.067704-22.744744-3.40563-33.934671-1.459556-15.325336-3.040741-30.650671-4.378667-46.097637-1.459556-14.109039-1.946074-28.096449-3.040741-42.327117-1.459556-19.582373-3.040741-39.043117-4.378668-58.62549l-3.040741-43.300154c-0.364889-5.351704-2.554223-6.689631-8.392445-6.324742-7.05452 0.608148-13.86578 0.973037-20.9203 1.337926-6.081482 0.608148-12.041335 1.337926-17.879558 1.946075 18.122817 91.587124 26.150374 183.295878 35.515857 274.274854 11.068298 0.973037 21.041929 1.581185 31.502079 2.554223 2.067704 0.364889 3.040741 0 3.040741-1.946075l-0.973037-10.581779c-0.851408-12.649483-2.310963-24.812448-3.64889-36.975413zM877.557905 613.135052c-1.216296-11.433187-2.310963-22.623114-3.52726-33.934672-1.216296-12.892743-2.310963-26.028745-3.892149-38.921487-0.851408-8.027557-2.189334-15.568595-3.162371-23.109633-0.364889-2.797482-2.189334-4.135408-4.986815-3.770519-4.986816 0.608148-10.33852 0.608148-15.568595 1.337926-7.176149 0.973037-14.230669 2.310963-21.771707 3.284001 8.878964 49.138377 17.879558 98.155125 27.123412 147.171873 10.46015-1.459556 20.79867-2.797482 31.258819-4.135408-0.364889-3.770519-0.851408-7.541038-1.216297-11.068298-1.581185-12.771113-3.040741-24.934078-4.257037-36.853783zM999.309182 660.327355c-0.364889-18.974225-0.973037-37.461931-1.337927-56.557786-0.364889-23.474522 0-47.313933 0-70.666825 0-5.230075-0.364889-9.973631-0.608148-15.203706 0-2.310963-1.337926-4.257038-3.770519-4.257038-9.852001-0.364889-19.825632-0.608148-29.677634-0.608148-3.770519 0-7.176149 0.608148-10.946668 1.337926 0.364889 1.337926 0.364889 2.310963 0.364889 3.284001 1.337926 16.176743 2.797482 32.110227 4.135408 47.800451 1.337926 15.325336 2.797482 31.13719 4.135408 46.462525 1.459556 16.663262 2.797482 33.448153 4.378667 50.111415 0 0.973037 1.459556 2.554223 2.432593 2.554222 9.973631 0.364889 20.55541 0 31.25882 0-0.364889-1.946074-0.364889-3.284-0.364889-4.257037zM859.556717 488.221404c-1.581185-18.366077-2.919112-35.637487-4.378667-53.395415-0.364889-2.310963-1.094667-3.40563-2.797482-3.40563-5.230075 0-10.581779 0-16.176743 0.364889 2.067704 19.704003 4.135408 38.556598 6.203112 58.017341 6.081482-0.608148 11.433187-0.729778 17.14978-1.581185zM999.674071 497.586887V447.597102c0-3.52726-1.459556-4.500297-4.743557-4.500297h-18.609336v57.409193c8.149186 0.364889 15.811854 0.608148 23.352893 0.973038v-3.892149zM836.203825 498.803183V495.032664c-0.851408-9.973631-2.067704-19.460744-2.919112-29.434374-0.486519-6.324742-1.216296-12.406224-1.702815-18.974225-0.364889-1.581185 0.364889-3.770519-2.067704-3.405631-5.594964 0.608148-10.946668 1.946074-16.541632 2.432593 3.162371 18.974225 6.081482 37.340302 9.243853 55.828009l13.98741-2.675853zM976.321178 500.141109v-29.677634c0-7.784297-0.486519-16.055113 0-23.83941 0-2.919112-1.094667-3.52726-3.892148-3.52726h-19.460744c1.702815 20.312151 3.284 39.408006 4.986816 58.382231 5.959853-0.364889 11.798076-0.851408 18.366076-1.337927z" fill="#F0F0F0" p-id="7857"></path><path d="M300.425229 655.583799c-2.797482-19.825632-5.594964-39.164746-8.392446-58.382231 10.825039 2.310963 56.192897 19.582373 58.382231 22.136596-16.541632 11.919705-32.840005 23.961041-49.989785 36.245635z m401.621095 0c-2.797482-19.460744-5.473334-38.921487-8.392446-58.382231 10.825039 2.310963 56.192897 19.582373 58.382231 22.136596-16.420002 11.919705-32.840005 23.961041-49.989785 36.245635z m0 0" fill="#F08198" p-id="7858"></path></svg>