<?xml version="1.0" standalone="no"?><!DOCTYPE svg PUBLIC "-//W3C//DTD SVG 1.1//EN" "http://www.w3.org/Graphics/SVG/1.1/DTD/svg11.dtd"><svg t="1613620858305" class="icon" viewBox="0 0 1024 1024" version="1.1" xmlns="http://www.w3.org/2000/svg" p-id="2559" xmlns:xlink="http://www.w3.org/1999/xlink" width="36" height="36"><defs><style type="text/css"></style></defs><path d="M834.154496 344.696832L748.7488 297.351168v188.89728l-194.402304 129.824768a76.24704 76.24704 0 0 1-84.688896 0L275.2512 486.2464V297.351168l-85.405696 47.345664a39.4752 39.4752 0 0 0-20.334592 34.521088v494.350336c0 30.978048 25.112576 56.088576 56.088576 56.088576h572.798976c30.978048 0 56.088576-25.112576 56.088576-56.088576V379.21792a39.46496 39.46496 0 0 0-20.332544-34.521088z" fill="#FDDF7F" p-id="2560"></path><path d="M275.2512 486.2464l194.404352 129.824768a76.24704 76.24704 0 0 0 84.688896 0l194.402304-129.824768V135.110656c0-22.74304-18.436096-41.181184-41.181184-41.181184H323.868672c-26.851328 0-48.617472 21.766144-48.617472 48.617472v343.699456z" fill="#ECF4F7" p-id="2561"></path><path d="M512 270.292992m-45.727744 0a45.727744 45.727744 0 1 0 91.455488 0 45.727744 45.727744 0 1 0-91.455488 0Z" fill="#83E1E5" p-id="2562"></path><path d="M275.2512 486.244352V297.34912l-85.405696 47.345664a39.4752 39.4752 0 0 0-20.334592 34.521088v36.292608l86.319104 57.765888 19.421184 12.969984zM748.7488 467.95776v18.28864l27.836416-18.589696 77.903872-52.0704v-36.368384c0-14.348288-7.786496-27.56608-20.334592-34.521088L748.7488 297.351168v170.606592z" fill="#AAB1BA" p-id="2563"></path><path d="M798.398464 929.65888H225.601536c-30.978048 0-56.088576-25.112576-56.088576-56.088576v84.103168c0 30.978048 25.112576 56.088576 56.088576 56.088576h572.796928c30.978048 0 56.088576-25.112576 56.088576-56.088576v-84.103168c0.002048 30.976-25.110528 56.088576-56.088576 56.088576z" fill="#83E1E5" p-id="2564"></path><path d="M864.72704 415.62112v-36.4032a49.731584 49.731584 0 0 0-25.61024-43.476992l-80.130048-44.42112V135.110656c0-28.35456-23.068672-51.421184-51.421184-51.421184H323.87072c-32.454656 0-58.857472 26.402816-58.857472 58.857472v148.772864l-80.132096 44.42112a49.733632 49.733632 0 0 0-25.608192 43.476992V492.883968a10.24 10.24 0 1 0 20.48 0V434.66752l228.204544 152.489984-204.09344 136.298496a10.24 10.24 0 0 0 11.370496 17.033216l211.154944-141.010944 37.5808 25.110528c14.139392 9.443328 31.084544 14.163968 48.029696 14.163968s33.8944-4.722688 48.033792-14.166016l37.584896-25.106432 211.144704 141.006848a10.22976 10.22976 0 0 0 14.200832-2.830336 10.24 10.24 0 0 0-2.830336-14.20288l-204.081152-136.288256 228.192256-152.424448v438.827008c0 25.28256-20.568064 45.850624-45.850624 45.850624H225.601536c-25.28256 0-45.850624-20.568064-45.850624-45.850624V584.361984a10.24 10.24 0 1 0-20.48 0v373.305344c0 36.573184 29.755392 66.328576 66.330624 66.328576h572.796928c36.573184 0 66.330624-29.755392 66.330624-66.328576V415.639552l-0.002048-0.018432zM548.6592 607.555584c-21.58592 14.415872-51.736576 14.413824-73.314304 0.002048L179.75296 410.036224v-30.818304c0-10.620928 5.769216-20.416512 15.058944-25.565184l70.201344-38.916096v120.377344a10.24 10.24 0 1 0 20.48 0V142.546944c0-21.161984 17.215488-38.377472 38.377472-38.377472h383.696896c17.061888 0 30.941184 13.879296 30.941184 30.941184v300.00128a10.24 10.24 0 1 0 20.48 0v-120.377344l70.199296 38.916096a29.24544 29.24544 0 0 1 15.060992 25.565184v30.89408L548.6592 607.555584z m295.58784 350.11584c0 25.280512-20.568064 45.848576-45.850624 45.848576H225.601536c-25.28256 0-45.850624-20.568064-45.850624-45.848576V921.45664c0.206848 0.198656 0.425984 0.385024 0.636928 0.581632a63.123456 63.123456 0 0 0 2.347008 2.091008 62.244864 62.244864 0 0 0 3.694592 2.924544c0.421888 0.309248 0.851968 0.610304 1.282048 0.91136 0.428032 0.299008 0.858112 0.600064 1.296384 0.888832 0.44032 0.292864 0.886784 0.57344 1.333248 0.856064 0.442368 0.278528 0.884736 0.559104 1.335296 0.827392 0.454656 0.272384 0.915456 0.53248 1.378304 0.792576 0.454656 0.258048 0.909312 0.516096 1.370112 0.761856 0.47104 0.251904 0.950272 0.49152 1.429504 0.733184 0.464896 0.23552 0.927744 0.47104 1.400832 0.69632 0.487424 0.231424 0.980992 0.448512 1.47456 0.667648 0.475136 0.210944 0.948224 0.425984 1.429504 0.626688 0.50176 0.208896 1.009664 0.401408 1.517568 0.598016 0.485376 0.188416 0.968704 0.382976 1.460224 0.559104 0.516096 0.186368 1.038336 0.356352 1.560576 0.528384 0.49152 0.16384 0.980992 0.333824 1.478656 0.487424 0.536576 0.16384 1.079296 0.309248 1.622016 0.4608 0.493568 0.137216 0.98304 0.282624 1.482752 0.4096 0.559104 0.141312 1.1264 0.262144 1.6896 0.391168 0.49152 0.110592 0.978944 0.231424 1.472512 0.331776 0.58368 0.116736 1.173504 0.212992 1.76128 0.315392 0.487424 0.086016 0.968704 0.180224 1.458176 0.253952 0.622592 0.094208 1.251328 0.16384 1.880064 0.239616 0.462848 0.057344 0.9216 0.124928 1.388544 0.172032 0.714752 0.07168 1.437696 0.116736 2.158592 0.16384 0.385024 0.026624 0.768 0.065536 1.155072 0.086016 1.091584 0.055296 2.189312 0.08192 3.293184 0.083968l0.067584 0.002048H798.406656l0.067584-0.002048a67.567616 67.567616 0 0 0 3.293184-0.083968c0.387072-0.02048 0.770048-0.059392 1.155072-0.086016 0.720896-0.049152 1.44384-0.09216 2.158592-0.16384 0.466944-0.047104 0.925696-0.114688 1.388544-0.172032 0.626688-0.075776 1.257472-0.145408 1.880064-0.239616 0.489472-0.073728 0.9728-0.169984 1.458176-0.253952 0.587776-0.1024 1.1776-0.196608 1.76128-0.315392 0.495616-0.100352 0.98304-0.221184 1.472512-0.331776 0.5632-0.126976 1.130496-0.249856 1.6896-0.391168 0.497664-0.126976 0.987136-0.272384 1.482752-0.4096 0.540672-0.151552 1.08544-0.29696 1.622016-0.4608 0.497664-0.151552 0.987136-0.321536 1.478656-0.487424 0.52224-0.17408 1.04448-0.342016 1.560576-0.528384 0.49152-0.178176 0.974848-0.370688 1.460224-0.559104 0.507904-0.196608 1.015808-0.38912 1.517568-0.598016 0.48128-0.200704 0.954368-0.415744 1.429504-0.626688 0.493568-0.219136 0.987136-0.436224 1.47456-0.667648 0.47104-0.223232 0.933888-0.4608 1.400832-0.69632 0.477184-0.241664 0.956416-0.479232 1.429504-0.733184 0.4608-0.24576 0.915456-0.505856 1.370112-0.761856 0.4608-0.260096 0.923648-0.52224 1.378304-0.792576 0.45056-0.268288 0.892928-0.548864 1.335296-0.827392 0.446464-0.282624 0.892928-0.5632 1.333248-0.856064a80.498688 80.498688 0 0 0 2.578432-1.800192c0.423936-0.311296 0.83968-0.630784 1.255424-0.950272a62.95552 62.95552 0 0 0 4.786176-4.06528c0.210944-0.196608 0.428032-0.382976 0.636928-0.581632v36.214784zM159.27296 540.672v-9.558016a10.24 10.24 0 1 1 20.48 0V540.672a10.24 10.24 0 1 1-20.48 0z m469.966848-91.930624a10.24 10.24 0 0 1-10.24 10.24H405.000192a10.24 10.24 0 1 1 0-20.48h213.999616a10.24 10.24 0 0 1 10.24 10.24z m0 46.891008a10.24 10.24 0 0 1-10.24 10.24H405.000192a10.24 10.24 0 1 1 0-20.48h213.999616a10.24 10.24 0 0 1 10.24 10.24z m6.946816-225.339392v24.7296a10.24 10.24 0 1 1-20.48 0v-24.7296c0-57.182208-46.522368-103.704576-103.706624-103.704576s-103.706624 46.522368-103.706624 103.704576 46.522368 103.704576 103.706624 103.704576h41.019392a10.24 10.24 0 1 1 0 20.48H512c-68.476928 0-124.186624-55.709696-124.186624-124.184576S443.523072 146.108416 512 146.108416s124.186624 55.707648 124.186624 124.184576z m-68.21888-49.965056a10.24 10.24 0 1 0-20.48 0v6.721536A55.7056 55.7056 0 0 0 512 214.325248c-30.859264 0-55.967744 25.106432-55.967744 55.967744 0 30.861312 25.10848 55.967744 55.967744 55.967744a55.7056 55.7056 0 0 0 35.663872-12.869632c1.753088 17.762304 16.775168 31.684608 34.99008 31.684608h15.239168a10.24 10.24 0 1 0 0-20.48h-15.239168c-8.097792 0-14.686208-6.588416-14.686208-14.686208v-89.581568zM512 305.780736c-19.56864 0-35.487744-15.919104-35.487744-35.487744s15.919104-35.487744 35.487744-35.487744 35.487744 15.919104 35.487744 35.487744-15.919104 35.487744-35.487744 35.487744z m68.001792 78.456832a10.24 10.24 0 0 1 10.24-10.24h4.368384a10.24 10.24 0 1 1 0 20.48h-4.368384a10.24 10.24 0 0 1-10.24-10.24zM180.492288 234.739712a10.24 10.24 0 0 1 10.24-10.24h8.577024v-8.577024a10.24 10.24 0 1 1 20.48 0v8.577024h8.577024a10.24 10.24 0 1 1 0 20.48h-8.577024v8.579072a10.24 10.24 0 1 1-20.48 0v-8.579072h-8.577024a10.24 10.24 0 0 1-10.24-10.24zM791.37792 150.38464a10.24 10.24 0 0 1 10.24-10.24h8.577024v-8.579072a10.24 10.24 0 1 1 20.48 0v8.579072h8.577024a10.24 10.24 0 1 1 0 20.48h-8.577024v8.577024a10.24 10.24 0 1 1-20.48 0V160.62464h-8.577024a10.24 10.24 0 0 1-10.24-10.24zM462.292992 29.057024a10.24 10.24 0 0 1 10.24-10.24h8.577024V10.24a10.24 10.24 0 1 1 20.48 0v8.577024h8.577024a10.24 10.24 0 1 1 0 20.48h-8.577024v8.577024a10.24 10.24 0 1 1-20.48 0v-8.577024h-8.577024a10.24 10.24 0 0 1-10.24-10.24z" fill="#1C1D21" p-id="2565"></path></svg>