<?xml version="1.0" standalone="no"?><!DOCTYPE svg PUBLIC "-//W3C//DTD SVG 1.1//EN" "http://www.w3.org/Graphics/SVG/1.1/DTD/svg11.dtd"><svg t="1613804737420" class="icon" viewBox="0 0 1024 1024" version="1.1" xmlns="http://www.w3.org/2000/svg" p-id="2977" xmlns:xlink="http://www.w3.org/1999/xlink" width="36" height="36"><defs><style type="text/css"></style></defs><path d="M778.9568 88.2176c37.12-36.7104 83.456-68.9664 137.0112-72.7552 27.5968-1.8432 59.392 2.2528 78.3872 24.576 17.5104 23.0912 17.3568 54.8352 11.1616 81.92-12.8512 56.2176-50.6368 102.912-92.5696 140.7488-42.5984 42.0864-84.3264 85.0432-127.232 126.8224 0.9216 3.5328 2.7648 10.5984 3.6352 14.1312 8.9088 140.4928 22.4768 280.7296 32.512 421.2736 3.072 32.4096 6.7584 65.024 5.376 97.6384-27.0848 26.368-52.0704 54.8864-79.8208 80.5888-11.4176 11.008-30.8224 3.7888-35.3792-10.4448-19.6608-57.1904-34.7136-115.8144-56.0128-172.4416-3.7376-21.1456-9.7792-41.728-16.6912-62.0032-4.7104-21.2992-16.128-40.448-20.0704-61.9008-9.0112-42.752-27.0336-83.0976-35.3792-126.0032-35.6864 26.4704-67.9936 57.1392-102.4 85.1456-17.5104 16.2304-37.9904 29.4912-53.6576 47.5136-1.3824 71.1168 0.512 142.2848 0.8192 213.4016-0.768 9.4208 1.5872 20.6848-5.4784 28.2624-13.056 14.7456-27.1872 28.5184-41.6768 41.8304-9.0112 8.9088-26.0608 6.144-32-5.0688-6.144-11.5712-10.9568-23.808-16.4352-35.6864-10.752-31.3856-22.6304-62.3616-34.9696-93.184-12.288-29.7984-21.0944-61.3888-35.8912-89.9584-75.3152-34.8672-153.1392-64.1024-228.2496-99.3792-5.8368-9.216-10.6496-22.528-0.8704-31.0272 14.3872-14.848 27.3408-31.3856 43.52-44.3904 28.4672-7.5776 58.368-0.768 87.4496-0.9216 52.3776 6.1952 105.2672 3.5328 157.696 9.0624 45.4656-53.0944 87.9104-108.6976 133.2736-161.8944C315.392 390.3488 176.2304 345.2928 36.6592 301.5168c-11.7248-2.6624-23.1936-12.0832-23.04-24.9856 2.2016-14.6432 15.4112-23.2448 24.7296-33.3312 21.1456-19.712 38.8608-43.0592 61.5424-61.0304 26.5216-5.0176 53.1968 4.096 79.8208 4.608 42.5472 4.4032 84.992 9.472 127.744 12.544 109.0048 12.3904 218.5728 21.9136 327.7312 33.3824 47.4112-48.6912 95.8976-96.3072 143.7696-144.4864m43.3152 22.4768c-52.992 52.6848-105.5744 105.7792-158.464 158.464-7.168 8.448-17.7152 11.4176-28.4672 9.6768-124.9792-12.4416-250.0096-25.3952-374.9888-37.2736-35.328-4.5568-70.912-8.0896-106.5472-10.5984-11.52-2.5088-23.3472-3.5328-35.1232-3.9936-10.5984 14.4384-29.0304 23.7568-35.9936 40.2432 142.0288 46.7968 285.184 90.5728 427.4176 136.704 4.7616 10.752 9.728 24.32-0.0512 33.9968-51.8144 64.4096-104.2944 128.3072-156.5184 192.4096-15.9232 21.9136-44.6464 7.1168-66.7136 8.2432-64.7168 0.512-128.9728-8.2944-193.6896-7.0656l1.8944 8.5504c63.6416 27.6992 127.5904 54.8352 191.2832 82.432 9.8816 3.584 16.5888 11.8784 19.712 21.7088 22.6304 61.2352 47.5648 121.5488 70.144 182.784 8.448-3.4816 6.1952-13.4144 6.7072-20.6336-2.56-70.0928 0.1536-140.2368-1.8944-210.3296-2.3552-13.7216 9.5744-22.8352 18.432-31.0272 57.1904-48.4864 114.5344-96.8704 171.5712-145.6128 7.5776-6.1952 16.7424-14.1312 27.392-11.008 12.288 1.9968 17.152 14.7968 20.2752 25.2416 41.0624 135.0144 83.2 269.6704 123.7504 404.7872 15.616-8.2944 26.0096-23.04 38.9632-34.56-4.1472-82.8928-13.056-165.4784-18.8416-248.32-5.632-83.6608-14.9504-167.0144-18.8928-250.7264l-2.56-0.0512c-0.3072-10.5472-0.6656-21.0944-1.024-31.6416 50.432-54.1696 104.2432-105.1136 156.16-157.8496 36.5568-36.0448 72.3456-83.8656 65.4848-138.1376-1.6896-13.7728-18.432-14.8992-29.184-16.128-41.8816-0.7168-80.7936 21.3504-110.2336 49.7152z" fill="#6D6D6D" p-id="2978"></path><path d="M510.1056 403.9168c76.9536 1.536 154.0096-0.2048 230.9632 0.8192l2.56 0.0512c3.9424 83.712 13.2608 167.0656 18.8928 250.7264 5.7856 82.8416 14.6944 165.4272 18.8416 248.32-12.9536 11.52-23.3472 26.2656-38.9632 34.56-40.5504-135.1168-82.688-269.7728-123.7504-404.7872-3.1232-10.4448-7.9872-23.2448-20.2752-25.2416-10.6496-3.1232-19.8144 4.8128-27.392 11.008-57.0368 48.7424-114.3808 97.1264-171.5712 145.6128-8.8576 8.192-20.7872 17.3056-18.432 31.0272 2.048 70.0928-0.6656 140.2368 1.8944 210.3296-0.512 7.2192 1.7408 17.152-6.7072 20.6336-22.5792-61.2352-47.5136-121.5488-70.144-182.784-3.1232-9.8304-9.8304-18.1248-19.712-21.7088-63.6928-27.5968-127.6416-54.7328-191.2832-82.432l-1.8944-8.5504c64.7168-1.2288 128.9728 7.5776 193.6896 7.0656 22.0672-1.1264 50.7904 13.6704 66.7136-8.2432 52.224-64.1024 104.704-128 156.5184-192.4096 9.7792-9.6768 4.8128-23.2448 0.0512-33.9968zM298.0864 852.5824c12.3392 30.8224 24.2176 61.7984 34.9696 93.184-7.9872-5.5808-11.9808-14.848-18.176-22.1184-2.7648-10.24 2.8672-25.9072-8.5504-31.4368-1.4848-1.536-4.4544-4.7104-5.888-6.2976-0.9728-11.1104-1.7408-22.2208-2.3552-33.3312z" fill="#F6BF96" p-id="2979"></path></svg>