<?xml version="1.0" standalone="no"?><!DOCTYPE svg PUBLIC "-//W3C//DTD SVG 1.1//EN" "http://www.w3.org/Graphics/SVG/1.1/DTD/svg11.dtd"><svg t="1613620620062" class="icon" viewBox="0 0 1024 1024" version="1.1" xmlns="http://www.w3.org/2000/svg" p-id="5574" width="36" height="36" xmlns:xlink="http://www.w3.org/1999/xlink"><defs><style type="text/css"></style></defs><path d="M505.2 933.8c0 49.8-72.8 90.1-162.5 90.1s-162.4-40.4-162.4-90.1c0-49.8 72.8-90 162.5-90 89.8 0 162.5 40.4 162.5 90.1l-0.1-0.1z m175.4-90c-89.8 0-162.5 40.4-162.5 90.1 0 49.8 72.8 90.1 162.5 90.1 89.8 0 162.5-40.4 162.5-90.1 0-49.8-72.8-90.1-162.5-90.1z" fill="#FFC615" p-id="5575"></path><path d="M870.9 501.4s-12.2-12.2-25.4-24.5V333.5c0-119.1-63.5-229.2-166.7-288.8-103.2-59.6-230.3-59.6-333.5 0-103.2 59.6-166.7 169.7-166.7 288.8v143.4c-13.3 12.2-25.6 24.5-25.6 24.5-21.6 33-73.4 117.3-73.4 196.9s21.8 93.2 30 93.8c8.2 0.6 35.6-7 68.8-58.3 45.1 149.9 177.2 258.5 333.2 258.5s288.6-108.6 333.5-258.5c33.5 51.6 61.8 59.3 69.3 58.6 7.6-0.7 30-14.3 30-93.8S892.7 534.7 871 502.1l-0.1-0.7z" fill="#37464F" p-id="5576"></path><path d="M266.7 558.8c-2.6 19.4-3.8 38.9-3.7 58.5 0 182.1 113.5 330.2 253.4 330.2s253.4-147.6 253.4-330.2c0-19.5-1.3-39.1-3.9-58.5H266.7zM424.3 153c-36.7 0-67.3 40.8-67.3 91.2 0 50.4 30.1 91.2 67.3 91.2s67.3-40.8 67.3-91.2c0-50.4-30.1-91.2-67.3-91.2z m11.2 128.3c-13.6 0-24.5-16.8-24.5-37.4 0-20.7 11-37.4 24.5-37.4s24.5 16.8 24.5 37.4c-0.1 20.6-11.1 37.4-24.5 37.4zM601.8 153c-36.7 0-67.3 40.8-67.3 91.2 0 50.4 30.1 91.2 67.3 91.2 37.2 0 67.3-40.8 67.3-91.2-0.1-50.4-30.2-91.2-67.3-91.2z m11.3 94.6c0 1-0.8 1.8-1.8 1.8-0.8 0-1.5-0.5-1.7-1.3-2.6-9.6-10.8-16.7-20.7-17.9-9.8 1.4-17.7 8.5-20.2 18.1-0.3 0.7-0.9 1.1-1.6 1.1-1 0-1.8-0.8-1.8-1.8v-3.1c0-20.7 11-37.4 24.5-37.4s24.5 16.8 24.5 37.4v3.2l-1.2-0.1z" fill="#FFFFFF" p-id="5577"></path><path d="M248 540.5c-6.1 30.6-19.1 167.9-13 198.5 6.1 30.6 31.8 25.4 68.7 25.8 36.9 0.4 77.5 10.1 78.1-34.7 0.6-44.9 0.7-133.3 10.9-165.9 10.2-32.7-144.7-23.7-144.7-23.7z" fill="#FF392E" p-id="5578"></path><path d="M239.9 606l143.6 46.5c0-29.6 3.2-59.2 9.4-88.2 10.1-32.6-144.8-23.8-144.8-23.8-2.2 11.1-5.4 36.7-8.2 65.5z" fill="#DD2C00" p-id="5579"></path><path d="M512.6 462.2c111.9 0 202.9-40.7 202.9-65.9 0-19.1-90.7-38.8-202.6-38.8-111.9 0-202.6 17.7-202.6 38.8 0 23.8 90.7 65.9 202.6 65.9h-0.3z" fill="#FFC615" p-id="5580"></path><path d="M514.7 486.8s128.5 1.3 231.1-42.2 101.6-48.9 112.9-48.9 24.5 16.1 30.1 45.2c5.6 29.1 12.2 52.1-12.2 66.4-24.5 14.3-181 106.5-357.9 106.5h-8.8c-176.9 0-334-92.3-357.9-106.5-24-14.2-17.4-36.7-12.2-66.4 5.1-29.7 18.8-45.2 30.1-45.2 11.2 0 10.1 4.9 112.9 48.9 102.7 44 231.1 42.2 231.1 42.2h0.8z" fill="#FF392E" p-id="5581"></path></svg>